/* XPM */
static char *folder-open[] = {
/* columns rows colors chars-per-pixel */
"16 16 17 1",
"  c gray100",
". c #FFFFCC",
"X c magenta",
"o c #CCCCFF",
"O c #C0C0C0",
"+ c #9999FF",
"@ c #6666CC",
"# c #222222",
"$ c black",
"% c black",
"& c black",
"* c black",
"= c black",
"- c black",
"; c black",
": c black",
"> c None",
/* pixels */
">>>>>>>>>>>>>>>>",
">>>>>>>>>>>>>>>>",
">>>>>>>>>>>>>>>>",
">>>>>>>>>>>>>>>>",
">>@@@@>>>>>>>>>>",
">@   @@@@@@@@@>>",
">@ +O.......#+@>",
">@ O.......#+o@>",
">+ .......#+o+@$",
"@@@@@@@@@@#@+o@$",
"@         O$o+@$",
">@+O+O+O+O+O$o@$",
">@O+O+O+O+O+#$@$",
">>@O+O+O+O+O+#$$",
">>@@@@@@@@@@@@@$",
">>>$$$$$$$$$$$$$"
};
