/* XPM */
static char *article[] = {
/* columns rows colors chars-per-pixel */
"16 16 17 1",
"  c black",
". c #BF0000",
"X c #00BF00",
"o c #BFBF00",
"O c #0000BF",
"+ c #BF00BF",
"@ c #00BFBF",
"# c #C0C0C0",
"$ c #808080",
"% c red",
"& c green",
"* c yellow",
"= c blue",
"- c magenta",
"; c cyan",
": c gray100",
"> c None",
/* pixels */
"OOOOOOOOOOO>>>>>",
"O:::::::::O>>>>>",
"O: #$ # #:OOO>>>",
"O:$ # $  :O*O>>>",
"O:::::::::O:O$>>",
"O:#$:$$#$:O*O$>>",
"O:::::::::O:O$>>",
"O:$$:$#$$:O*O$>>",
"O:::::::::O:O$>>",
"O:#$:$$$#:O*O$>>",
"O:::::::::O:O$>>",
"OOOOOOOOOOO*O$>>",
">>O:*:*:*:*:O$>>",
">>OOOOOOOOOOO$>>",
">>>>$$$$$$$$$$>>",
">>>>>>>>>>>>>>>>"
};
